<svg width="20" height="20" viewBox="0 0 20 20" fill="none" xmlns="http://www.w3.org/2000/svg">
<path d="M10 19.167C12.0395 19.167 13.6216 19.0564 14.8555 18.7822C16.0799 18.5101 16.9102 18.0878 17.499 17.499C18.0878 16.9102 18.5101 16.0799 18.7822 14.8555C19.0564 13.6216 19.167 12.0395 19.167 10C19.167 7.96049 19.0564 6.37838 18.7822 5.14453C18.5101 3.92009 18.0878 3.08979 17.499 2.50098C16.9102 1.91216 16.0799 1.4899 14.8555 1.21777C13.6216 0.943613 12.0395 0.833008 10 0.833008C7.96049 0.833008 6.37838 0.943613 5.14453 1.21777C3.92009 1.4899 3.08979 1.91216 2.50098 2.50098C1.91216 3.08979 1.4899 3.92009 1.21777 5.14453C0.943613 6.37838 0.833008 7.96049 0.833008 10C0.833008 12.0395 0.943614 13.6216 1.21777 14.8555C1.4899 16.0799 1.91216 16.9102 2.50098 17.499C3.08979 18.0878 3.92009 18.5101 5.14453 18.7822C6.37838 19.0564 7.96049 19.167 10 19.167Z" stroke="#525960" stroke-width="1.66667" stroke-linecap="round" stroke-linejoin="round"/>
<path d="M10.0002 5.83301V14.1663M14.1668 9.16634V14.1663M5.8335 10.833V14.1663" stroke="#525960" stroke-width="1.66667" stroke-linecap="round" stroke-linejoin="round"/>
</svg>
